<svg width="30" height="30" viewBox="0 0 30 30" fill="none" xmlns="http://www.w3.org/2000/svg">
<path fill-rule="evenodd" clip-rule="evenodd" d="M16.25 2.5C10.0368 2.5 5 7.5368 5 13.75C5 16.406 5.92039 18.847 7.45962 20.7715L2.86612 25.3661C2.37796 25.8543 2.37796 26.6457 2.86612 27.1339C3.31672 27.5845 4.02576 27.6192 4.51612 27.2379L4.63388 27.1339L9.22853 22.5404C11.153 24.0796 13.594 25 16.25 25C22.4632 25 27.5 19.9632 27.5 13.75C27.5 7.5368 22.4632 2.5 16.25 2.5ZM16.25 5C21.0825 5 25 8.91751 25 13.75C25 18.5825 21.0825 22.5 16.25 22.5C11.4175 22.5 7.5 18.5825 7.5 13.75C7.5 8.91751 11.4175 5 16.25 5Z" fill="#212121"/>
</svg>
